<?xml version="1.0" standalone="no"?>
<!DOCTYPE svg PUBLIC "-//W3C//DTD SVG 20010904//EN"
 "http://www.w3.org/TR/2001/REC-SVG-20010904/DTD/svg10.dtd">
<svg version="1.0" xmlns="http://www.w3.org/2000/svg"
 width="2381.000000pt" height="2381.000000pt" viewBox="0 0 2381.000000 2381.000000"
 preserveAspectRatio="xMidYMid meet">

<g transform="translate(0.000000,2381.000000) scale(0.100000,-0.100000)"
fill="#000000" stroke="none">
<path d="M20430 23041 c0 -5 -684 -694 -1521 -1530 -1296 -1296 -1519 -1523
-1510 -1538 19 -34 3048 -3056 3060 -3052 22 8 3061 3054 3059 3067 -5 23
-3052 3062 -3070 3062 -10 0 -18 -4 -18 -9z m757 -773 c398 -398 723 -728 723
-733 0 -12 -1464 -1478 -1481 -1484 -13 -4 -1459 1438 -1459 1454 0 13 1472
1485 1485 1485 5 0 335 -325 732 -722z m1520 -1520 c414 -414 753 -757 753
-763 0 -6 -334 -344 -743 -753 l-742 -742 -760 760 -760 760 745 745 c410 410
747 745 750 745 3 0 344 -339 757 -752z m-3042 -8 c399 -398 724 -728 723
-732 -2 -5 -1479 -1488 -1483 -1488 0 0 -330 330 -733 733 l-732 732 743 743
c408 408 745 741 749 740 5 -2 334 -329 733 -728z m1523 -1522 c413 -414 751
-756 750 -760 -2 -4 -336 -341 -743 -748 l-740 -740 -757 757 c-417 417 -758
760 -758 763 0 10 1475 1480 1485 1480 6 0 349 -339 763 -752z"/>
<path d="M1590 10850 l0 -9680 9710 0 9710 0 0 7520 c0 4136 -1 7521 -2 7522
-2 1 -496 5 -1098 8 l-1095 5 -5 54 c-7 76 -28 79 -32 4 l-3 -58 -1038 -3
-1037 -2 2 2155 3 2155 -7557 0 -7558 0 0 -9680z m2155 8585 l0 -1050 -1057
-3 -1058 -2 0 1048 c0 577 3 1052 7 1055 3 4 479 6 1057 5 l1051 -3 0 -1050z
m2113 -2 l2 -1053 -1035 0 -1035 0 0 1055 0 1055 1033 -2 1032 -3 3 -1052z
m2192 2 l0 -1055 -1075 0 -1075 0 0 1055 0 1055 1075 0 1075 0 0 -1055z m2150
0 l0 -1055 -1055 0 -1055 0 0 1055 0 1055 1055 0 1055 0 0 -1055z m2115 0 l0
-1050 -1035 0 -1035 0 -3 1040 c-1 572 0 1046 3 1053 3 10 216 12 1037 10
l1033 -3 0 -1050z m2193 -2 l2 -1053 -1075 0 -1075 0 0 1055 0 1055 1073 -2
1072 -3 3 -1052z m2152 2 l0 -1055 -1055 0 -1055 0 0 1055 0 1055 1055 0 1055
0 0 -1055z m-12915 -2155 l0 -1055 -1055 0 -1055 0 -3 1045 c-1 575 0 1051 3
1058 3 10 220 12 1057 10 l1053 -3 0 -1055z m2110 0 l0 -1055 -1032 -3 -1033
-2 0 1060 0 1060 1033 -2 1032 -3 0 -1055z m2190 0 l0 -1055 -1070 0 -1070 0
-3 1045 c-1 575 0 1051 3 1058 3 10 223 12 1072 10 l1068 -3 0 -1055z m2153 3
l-3 -1058 -1050 0 -1050 0 -3 1045 c-1 575 0 1051 3 1058 3 9 224 12 1055 12
l1050 0 -2 -1057z m2117 70 l0 -982 -26 -28 c-16 -16 -30 -46 -34 -71 -5 -32
-12 -43 -28 -47 -12 -3 -463 -4 -1002 -3 l-980 3 -3 1045 c-1 575 0 1051 3
1058 3 10 216 12 1037 10 l1033 -3 0 -982z m2193 350 c1 -420 -1 -633 -8 -633
-5 0 -10 23 -10 51 0 39 -7 62 -27 95 -16 24 -33 43 -39 44 -6 0 -19 10 -30
21 -10 12 -62 55 -114 97 -52 41 -121 104 -154 139 -96 105 -87 103 -428 103
-286 0 -294 -1 -329 -23 -78 -47 -119 -78 -119 -87 0 -6 -9 -10 -20 -10 -11 0
-40 -18 -64 -40 -24 -22 -46 -40 -50 -40 -4 0 -33 -20 -64 -44 -32 -24 -81
-51 -109 -61 -29 -9 -53 -21 -53 -25 0 -5 -18 -14 -40 -20 -37 -10 -40 -14
-55 -68 -23 -84 -60 -151 -121 -215 -29 -31 -56 -67 -58 -79 -3 -13 -7 -35
-10 -49 -3 -14 -21 -44 -40 -65 -57 -63 -60 -67 -84 -102 -13 -19 -26 -47 -29
-63 -3 -16 -12 -34 -19 -40 -8 -6 -14 -17 -14 -25 0 -7 -9 -18 -19 -23 -10 -6
-23 -28 -29 -48 -7 -26 -10 255 -11 905 l-1 942 1073 -2 1072 -3 3 -632z
m2147 -423 l0 -1055 -940 -3 c-517 -2 -963 0 -991 3 l-52 6 -5 112 c-9 211
-28 452 -39 507 -8 38 -22 67 -45 93 l-33 37 0 673 c0 371 3 677 7 680 3 4
477 6 1052 5 l1046 -3 0 -1055z m-3352 -1028 c23 -25 12 -32 -42 -31 -53 2
-121 16 -83 18 12 0 22 5 22 10 0 10 26 17 66 20 11 0 28 -7 37 -17z m-9558
-1117 l0 -1040 -1055 0 -1055 0 -3 1043 -2 1042 1057 -2 1058 -3 0 -1040z
m2113 3 l-3 -1043 -1032 -3 -1033 -2 0 1045 0 1045 1035 0 1035 0 -2 -1042z
m2192 -3 l0 -1045 -1075 0 -1075 0 0 1045 0 1045 1075 0 1075 0 0 -1045z
m2150 0 l0 -1045 -1052 2 -1053 3 -3 1043 -2 1042 1055 0 1055 0 0 -1045z
m2050 1033 c0 -7 -25 -41 -56 -75 -50 -57 -56 -68 -61 -120 -4 -43 -14 -72
-39 -110 -19 -28 -34 -55 -34 -59 0 -4 -9 -17 -20 -29 -12 -13 -22 -42 -26
-80 -7 -59 -25 -94 -81 -164 -16 -19 -31 -41 -34 -50 -11 -27 -189 -186 -230
-205 -10 -5 -19 -13 -19 -17 0 -4 -10 -20 -23 -36 -13 -16 -34 -67 -47 -117
-28 -110 -41 -135 -107 -201 -29 -29 -53 -57 -53 -62 0 -20 -203 -203 -225
-203 -4 0 -13 7 -21 15 -23 23 -37 19 -89 -24 -26 -22 -63 -42 -81 -46 -36 -6
-64 -37 -64 -70 0 -13 -45 -67 -120 -144 -66 -67 -120 -126 -120 -129 0 -4
-31 -40 -70 -80 l-70 -73 -157 3 -158 3 -3 1043 -2 1042 1005 0 c797 0 1005
-3 1005 -12z m1130 -2 c0 -7 7 -19 15 -26 19 -16 19 -67 0 -235 -8 -71 -15
-170 -15 -220 0 -49 -6 -148 -14 -220 -25 -229 -27 -279 -16 -354 7 -48 7 -85
0 -110 -5 -20 -10 -66 -12 -102 -2 -72 -12 -79 -51 -34 -43 50 -51 78 -56 211
l-6 130 -42 50 c-24 29 -44 65 -48 87 -4 21 -13 41 -20 45 -10 6 -31 80 -50
178 -3 17 -17 42 -31 54 -13 13 -24 29 -24 35 0 7 -10 25 -22 41 -20 25 -23
43 -27 140 -3 97 0 116 18 155 25 51 41 77 59 97 7 8 20 32 29 53 l15 39 149
0 c120 0 149 -3 149 -14z m3280 -1031 l0 -1045 -1055 0 -1056 0 3 669 3 670
23 28 c54 67 56 79 72 453 7 135 13 251 15 258 4 9 212 12 1000 12 l995 0 0
-1045z m2110 0 l0 -1045 -1032 2 -1033 3 -3 1043 -2 1042 1035 0 1035 0 0
-1045z m2198 3 l-3 -1043 -1075 0 -1075 0 -3 1030 c-1 567 0 1036 3 1043 3 9
229 12 1080 12 l1075 0 -2 -1042z m-6460 -574 l-3 -469 -198 -3 c-197 -2 -237
3 -237 32 0 8 -7 19 -15 26 -19 16 -19 69 0 94 8 11 15 27 15 36 0 9 18 35 40
58 36 37 40 47 40 90 0 40 7 60 41 113 23 35 48 68 56 74 9 7 17 36 20 75 4
36 14 76 23 90 9 14 25 37 34 53 9 15 22 27 29 27 12 0 39 66 52 128 4 17 7
32 8 32 1 0 20 7 42 14 22 8 43 11 48 7 4 -4 6 -218 5 -477z m-2043 306 c10
-11 23 -20 30 -20 19 0 80 -73 93 -112 7 -20 10 -47 7 -60 -4 -16 2 -36 19
-61 14 -20 30 -64 36 -99 19 -115 33 -163 49 -175 12 -9 16 -29 16 -83 0 -61
-3 -74 -22 -88 -12 -9 -23 -30 -25 -47 l-3 -30 -95 0 -95 0 -3 29 c-2 16 -21
51 -43 79 -68 86 -69 90 -69 378 0 290 3 309 55 309 19 0 39 -8 50 -20z m-145
-270 c0 -95 -4 -171 -9 -175 -6 -3 -17 12 -26 32 -9 21 -23 51 -31 66 -18 36
-17 67 1 91 8 11 15 32 15 47 0 15 5 31 10 34 6 3 10 17 10 30 0 32 10 56 21
49 5 -3 9 -81 9 -174z m-8575 -1605 l0 -1050 -1055 0 -1055 0 -3 1040 c-1 572
0 1046 3 1053 3 10 220 12 1057 10 l1053 -3 0 -1050z m2115 0 l0 -1055 -1035
0 -1035 0 0 1055 0 1055 1035 0 1035 0 0 -1055z m2190 606 c0 -347 -3 -451
-12 -459 -7 -5 -33 -13 -58 -17 -25 -4 -89 -20 -142 -36 -54 -16 -120 -29
-148 -29 -89 0 -134 -17 -182 -69 l-43 -46 -5 -500 -5 -500 -777 -3 -778 -2 0
1055 0 1055 1075 0 1075 0 0 -449z m2150 349 c0 -89 -2 -100 -20 -110 -47 -25
-320 -319 -320 -344 0 -10 -25 -43 -55 -75 -45 -47 -56 -67 -66 -112 -13 -64
-28 -83 -89 -114 -61 -31 -89 -59 -113 -114 -17 -39 -19 -57 -13 -141 10 -134
7 -202 -10 -221 -9 -10 -14 -38 -14 -80 0 -132 -17 -227 -50 -282 -52 -87 -74
-115 -97 -126 -21 -10 -23 -17 -25 -148 l-3 -138 -136 -3 -137 -3 -19 34 c-11
18 -22 59 -26 90 -4 45 -12 65 -36 93 -17 19 -31 39 -31 44 0 5 -9 17 -19 27
-14 14 -22 43 -30 123 -11 102 -12 106 -50 145 -49 51 -67 86 -75 155 -5 36
-15 64 -30 80 -13 14 -32 41 -42 60 -10 19 -29 48 -41 63 -13 16 -23 41 -23
56 0 53 -26 87 -89 115 -32 14 -64 33 -71 41 -7 8 -23 15 -36 15 -13 0 -63 14
-112 30 -48 17 -116 34 -152 37 -36 3 -68 11 -72 17 -4 6 -8 208 -8 449 l0
437 1055 0 1055 0 0 -100z m310 95 c0 -8 -66 -65 -104 -91 -34 -23 -139 -49
-156 -39 -11 7 -14 118 -3 128 8 8 263 9 263 2z m2140 -37 c-2 -152 -61 -204
-103 -91 -10 26 -23 56 -28 65 -5 10 -9 24 -9 32 0 8 -8 20 -17 25 -13 8 5 10
70 11 l87 0 0 -42z m1860 -43 c0 -47 -4 -85 -9 -85 -5 0 -11 3 -13 8 -9 20
-72 52 -134 67 -89 21 -144 45 -144 62 0 7 -6 13 -14 13 -8 0 -18 5 -21 10 -4
7 53 10 164 10 l171 0 0 -85z m2150 -970 l0 -1055 -155 0 -154 0 -6 33 c-3 17
-10 81 -15 140 -12 118 -26 202 -37 220 -4 7 -20 22 -35 36 -16 13 -36 37 -45
55 -8 17 -36 54 -62 82 -83 92 -99 120 -106 187 -4 34 -16 74 -26 89 -11 14
-19 31 -19 37 0 7 -7 14 -15 17 -8 4 -15 10 -15 15 0 17 -43 69 -57 69 -8 0
-16 7 -20 16 -3 8 -21 32 -40 53 -27 30 -44 40 -79 45 -54 7 -136 41 -184 75
-31 22 -103 84 -195 168 -31 28 -70 53 -117 75 -16 7 -28 16 -28 20 0 4 -12
14 -27 22 -16 8 -67 47 -115 88 -48 40 -108 89 -134 108 -25 19 -56 45 -68 56
-11 12 -43 27 -70 33 -27 7 -58 19 -70 27 -11 7 -30 14 -41 14 -12 0 -39 17
-62 38 -23 20 -57 50 -77 65 l-36 28 0 99 0 100 1055 0 1055 0 0 -1055z m2110
0 l0 -1055 -1035 0 -1035 0 0 1055 0 1055 1035 0 1035 0 0 -1055z m2195 0 l0
-1050 -1075 0 -1075 0 -3 1040 c-1 572 0 1046 3 1053 3 10 224 12 1077 10
l1073 -3 0 -1050z m-9601 518 c21 -3 58 -19 82 -35 42 -28 205 -197 213 -221
2 -7 38 -44 78 -83 72 -70 74 -73 83 -135 8 -53 14 -68 40 -89 16 -14 30 -29
30 -33 0 -5 23 -34 51 -65 28 -32 60 -76 70 -99 11 -23 23 -43 27 -45 8 -3 45
-128 68 -233 20 -91 18 -183 -6 -228 -17 -32 -20 -56 -20 -172 l0 -135 -820 0
c-451 0 -820 3 -820 6 0 3 14 26 30 51 17 24 30 53 30 63 0 10 5 22 10 25 20
12 47 81 60 155 9 47 24 90 41 115 38 58 66 123 73 177 4 26 15 57 25 70 9 13
23 39 31 58 7 19 22 42 33 51 10 9 23 33 27 55 18 83 39 151 60 193 26 52 23
102 -12 183 -20 47 -21 56 -9 122 18 107 16 105 198 195 34 17 64 35 68 41 3
5 30 10 60 10 30 0 56 4 59 8 5 8 68 6 140 -5z m2606 -138 c8 -6 38 -18 65
-25 31 -8 65 -27 90 -49 22 -21 59 -50 82 -65 62 -42 115 -103 148 -172 27
-57 47 -78 124 -125 l26 -16 3 -491 2 -492 -414 0 c-451 0 -426 -3 -426 55 0
14 -13 40 -30 58 -19 23 -30 45 -30 65 0 18 -7 35 -16 40 -21 12 -30 306 -16
527 9 143 13 166 38 215 32 64 40 151 26 275 -5 44 -6 87 -2 95 4 8 16 33 26
55 35 75 31 74 167 68 74 -3 128 -10 137 -18z m644 -517 c25 -24 56 -53 69
-65 13 -12 36 -41 53 -65 16 -24 49 -63 74 -88 70 -70 152 -162 184 -209 16
-23 35 -45 41 -49 7 -4 14 -12 16 -18 2 -6 48 -58 102 -114 53 -57 97 -109 97
-116 0 -8 7 -14 15 -14 8 0 15 -4 15 -9 0 -5 17 -26 37 -46 24 -24 42 -54 49
-81 l11 -44 -414 0 -413 0 0 480 c0 301 4 480 10 480 5 0 29 -19 54 -42z
m-10869 -2013 l0 -1050 -1057 -3 -1058 -2 0 1048 c0 577 3 1052 7 1055 3 4
479 6 1057 5 l1051 -3 0 -1050z m2113 732 c2 -270 0 -322 -13 -347 -9 -18 -23
-30 -35 -30 -11 0 -28 -12 -37 -27 -16 -25 -18 -58 -17 -373 0 -344 7 -435 38
-502 8 -18 19 -55 25 -83 6 -27 17 -81 26 -120 9 -41 15 -119 15 -187 l0 -118
-1035 0 -1035 0 0 1055 0 1055 1033 -2 1032 -3 3 -318z m1597 -102 c0 -399 -1
-422 -20 -455 -14 -25 -19 -54 -19 -100 0 -46 5 -75 19 -100 18 -32 20 -59 23
-336 l3 -302 -46 -68 c-48 -71 -79 -94 -125 -94 -34 0 -72 42 -90 97 -7 23
-19 44 -26 47 -8 3 -14 16 -14 29 0 14 -8 35 -19 48 -13 18 -21 54 -30 138 -6
63 -9 116 -7 119 2 2 -2 18 -9 35 -7 18 -16 58 -20 90 -3 31 -10 57 -15 57 -4
0 -19 20 -33 43 -20 38 -25 62 -30 173 l-7 129 -34 30 c-18 17 -44 39 -57 51
-13 11 -46 48 -74 82 -27 34 -79 92 -113 129 -113 121 -162 183 -162 207 0 52
-73 71 -270 71 -138 0 -158 -2 -186 -20 -60 -39 -116 -80 -155 -114 l-39 -33
0 236 0 236 778 -2 777 -3 0 -420z m1875 160 c3 -143 10 -270 14 -282 5 -13 5
-30 2 -39 -6 -15 -9 -14 -31 6 -21 20 -25 33 -25 80 0 47 -5 64 -30 98 -17 23
-34 42 -38 42 -14 0 -60 102 -67 150 -4 25 -11 50 -15 55 -4 6 -11 43 -14 83
l-7 73 103 -3 103 -3 5 -260z m2735 244 c-14 -43 -9 -138 8 -157 15 -16 15
-23 2 -64 -7 -26 -21 -89 -30 -140 -16 -97 -72 -237 -137 -346 -42 -70 -98
-107 -176 -117 -72 -8 -168 -32 -204 -51 -36 -19 -55 -49 -73 -116 -20 -77
-90 -220 -130 -265 -109 -123 -150 -139 -307 -128 -113 8 -119 10 -200 78 -31
26 -61 47 -66 47 -15 0 -124 128 -148 175 -6 12 -14 46 -18 76 -7 49 -13 60
-76 124 -98 102 -102 117 -108 443 -3 180 -1 266 7 275 6 8 13 47 17 88 3 41
7 80 10 87 3 9 175 12 819 12 l816 0 -6 -21z m2443 -1036 l2 -1053 -1075 0
-1075 0 0 425 0 425 29 64 c17 37 41 73 59 86 40 30 55 109 46 249 -7 93 -5
104 14 130 14 19 23 51 27 102 4 41 13 81 20 89 27 34 43 89 44 154 1 43 9 85
21 110 10 23 21 58 25 79 10 51 65 97 112 93 36 -3 83 -40 83 -65 0 -9 27 -43
60 -76 49 -50 61 -69 71 -113 9 -36 25 -67 51 -97 21 -24 45 -55 52 -70 8 -15
53 -66 100 -115 47 -49 86 -92 86 -97 0 -5 26 -34 58 -65 53 -52 62 -57 122
-66 36 -5 87 -6 115 -2 28 4 91 11 142 15 51 4 97 12 102 19 22 27 42 157 47
325 6 160 5 183 -14 249 -15 51 -29 79 -47 94 -77 60 -95 84 -95 127 l0 41
408 -2 407 -3 3 -1052z m961 1005 c111 -127 267 -279 305 -297 64 -30 194 -71
224 -71 57 0 242 84 286 129 31 32 42 71 52 184 4 47 13 84 21 93 11 11 47 14
159 14 l144 0 0 -1055 0 -1055 -1055 0 -1055 0 0 1055 0 1055 437 0 437 0 45
-52z m3301 -1003 l0 -1055 -1035 0 -1035 0 0 1048 c0 577 3 1052 7 1055 3 4
469 7 1035 7 l1028 0 0 -1055z m2198 -3 l2 -1052 -1077 2 -1078 3 -3 1040 c-1
572 0 1046 3 1053 3 10 224 12 1077 10 l1073 -3 3 -1053z m-15055 508 c-7 -28
-13 -25 -13 6 0 14 4 23 9 20 5 -3 7 -15 4 -26z m2444 -24 c29 -30 55 -68 59
-83 4 -15 26 -50 49 -78 51 -61 69 -104 62 -147 -3 -18 4 -75 14 -127 15 -74
24 -97 44 -113 50 -39 72 -95 78 -196 4 -68 11 -99 25 -120 10 -15 22 -35 25
-44 4 -10 11 -18 16 -18 23 0 43 -70 52 -179 7 -93 12 -118 29 -136 11 -12 20
-25 20 -29 0 -4 11 -22 25 -40 26 -35 45 -110 45 -182 l0 -44 -405 0 -405 0 0
533 c0 362 4 551 12 592 6 33 12 81 13 107 2 25 10 57 19 69 9 13 16 40 16 61
0 20 5 50 11 65 76 185 106 201 196 109z m1075 -138 c21 -37 19 -68 -5 -68
-18 0 -37 42 -37 81 0 39 15 34 42 -13z m-1382 -1008 l0 -390 -66 0 c-59 0
-65 2 -58 18 4 9 11 100 16 202 12 278 18 328 35 346 11 10 18 41 21 90 2 41
9 74 14 74 4 0 13 11 18 25 5 14 12 25 15 25 3 0 5 -175 5 -390z m4270 -35 l0
-355 -296 0 -295 0 28 37 c15 21 64 72 108 115 155 149 265 264 265 277 0 5
22 36 50 68 27 32 57 78 66 103 30 82 45 110 59 110 13 0 15 -51 15 -355z
m-2468 163 c65 -66 118 -125 118 -131 0 -16 88 -108 153 -160 34 -27 65 -55
69 -61 4 -6 8 -46 8 -88 l0 -78 -174 0 -175 0 -6 48 c-9 75 -27 124 -57 163
-15 20 -28 47 -28 60 0 12 -8 31 -17 41 -13 15 -18 49 -24 166 -6 141 -5 162
8 162 3 0 59 -55 125 -122z m497 -492 l24 -26 -66 0 -67 0 0 48 c0 27 3 52 6
55 7 7 65 -36 103 -77z m-6604 -1116 l0 -1045 -1055 0 -1055 0 -3 1035 c-1
569 0 1041 3 1048 3 10 220 12 1057 10 l1053 -3 0 -1045z m2110 0 l0 -1045
-1032 -3 -1033 -2 0 1043 c0 574 3 1047 7 1050 3 4 468 6 1032 5 l1026 -3 0
-1045z m2190 0 l0 -1045 -169 -3 c-93 -1 -173 1 -177 5 -11 12 10 185 27 210
7 12 17 48 20 80 4 32 12 65 19 73 45 55 48 75 56 370 8 278 11 313 43 395 19
51 20 106 1 178 -19 73 -19 118 1 187 9 33 19 132 25 250 5 107 12 227 15 267
7 81 9 82 94 79 l45 -1 0 -1045z m842 1042 c7 -5 17 -29 21 -54 6 -28 23 -63
44 -90 55 -68 65 -102 71 -230 5 -103 8 -122 33 -165 15 -26 33 -55 40 -63 26
-31 42 -109 48 -234 4 -92 10 -135 21 -150 8 -12 31 -41 49 -66 19 -25 35 -53
35 -62 1 -10 20 -39 44 -66 57 -64 84 -109 92 -155 5 -26 18 -46 42 -65 18
-15 42 -42 53 -59 11 -18 24 -33 31 -33 6 0 24 -11 41 -25 16 -14 42 -25 57
-25 15 0 60 11 99 25 39 14 85 25 102 25 34 0 96 23 120 44 8 8 34 19 58 25
43 12 112 64 112 85 0 12 82 96 94 96 3 0 6 -191 6 -425 l0 -425 -1052 2
-1053 3 -3 1035 c-1 569 0 1041 3 1048 3 9 91 12 392 12 213 0 394 -4 400 -8z
m1308 -5 c3 -6 4 -180 3 -386 l-3 -374 -37 59 c-21 32 -38 66 -38 75 0 9 -7
22 -15 29 -8 7 -15 27 -15 44 0 57 -22 110 -66 160 -33 38 -45 60 -49 95 -18
150 -23 167 -54 202 -30 32 -53 85 -44 102 2 4 74 7 159 7 115 0 156 -3 159
-13z m445 -12 c30 -7 73 -21 95 -30 55 -24 302 -26 391 -2 146 38 301 49 753
50 l436 2 0 -1045 0 -1045 -1035 0 -1035 0 -2 1035 c-2 569 0 1041 2 1049 5
11 34 13 173 7 92 -4 192 -13 222 -21z m3865 -1025 l0 -1045 -1072 -3 -1073
-2 0 1043 c0 574 3 1047 7 1050 3 4 486 6 1072 5 l1066 -3 0 -1045z m2150 0
l0 -1045 -1050 0 -1050 0 -3 1035 c-1 569 0 1041 3 1048 3 10 219 12 1052 10
l1048 -3 0 -1045z m2113 -3 l2 -1047 -1032 2 -1033 3 -3 1035 c-1 569 0 1041
3 1048 3 10 215 12 1032 10 l1028 -3 3 -1048z m2197 3 l0 -1045 -1075 0 -1075
0 -3 1035 c-1 569 0 1041 3 1048 3 10 224 12 1077 10 l1073 -3 0 -1045z
m-15025 860 c5 0 12 -21 15 -47 4 -27 16 -91 26 -143 11 -52 23 -150 26 -217
l6 -123 -33 -71 c-46 -99 -48 -140 -15 -220 52 -125 52 -117 6 -339 -18 -89
-33 -279 -48 -602 -3 -76 -10 -138 -15 -138 -4 0 -8 430 -8 956 0 868 1 956
16 950 9 -3 19 -6 24 -6z m714 -421 c14 -11 26 -24 26 -29 0 -4 14 -22 30 -40
36 -38 40 -83 10 -115 -12 -13 -25 -48 -31 -84 -12 -67 -6 -85 38 -102 15 -5
23 -17 23 -32 0 -13 13 -36 30 -52 17 -16 42 -52 56 -79 23 -46 27 -67 33
-201 6 -148 7 -151 39 -198 17 -26 32 -50 32 -53 0 -3 10 -18 22 -35 18 -24
24 -49 29 -118 6 -88 29 -143 73 -180 9 -7 16 -20 16 -29 0 -18 37 -80 63
-106 15 -15 16 -20 5 -27 -15 -10 -620 -12 -668 -2 l-33 6 7 133 c7 147 21
239 40 269 10 15 15 105 19 335 5 296 6 318 28 373 l22 58 -18 100 c-14 76
-16 102 -7 111 7 7 12 30 12 53 0 23 5 46 12 53 18 18 62 14 92 -9z m-2909
-2584 l0 -1050 -1055 0 -1055 0 -3 1053 -2 1052 1057 -2 1058 -3 0 -1050z
m2112 803 c-7 -303 -20 -419 -50 -461 -21 -28 -22 -36 -19 -285 3 -300 -8
-427 -43 -537 -14 -44 -30 -120 -36 -170 -5 -49 -11 -104 -13 -121 -2 -18 -7
-38 -12 -45 -5 -8 -11 -63 -14 -124 l-5 -110 -937 -3 -938 -2 0 1055 0 1055
1037 0 1036 0 -6 -252z m1373 242 c0 -5 30 -24 68 -41 84 -39 164 -42 232 -11
25 12 53 22 63 22 9 0 34 9 54 20 34 18 57 20 220 20 l183 0 0 -1055 0 -1055
-907 0 c-500 0 -913 4 -920 8 -14 9 10 184 33 242 9 23 15 106 20 243 5 162
10 212 21 223 9 9 18 53 25 121 5 59 13 110 18 113 19 11 48 109 55 185 5 44
7 199 6 345 -2 251 8 400 28 424 5 6 12 49 16 96 4 47 8 91 10 98 5 15 775 18
775 2z m2970 -1045 l0 -1055 -1055 0 -1055 0 0 1055 0 1055 1055 0 1055 0 0
-1055z m2115 0 l0 -1050 -1035 0 -1035 0 -3 1040 c-1 572 0 1046 3 1053 3 10
216 12 1037 10 l1033 -3 0 -1050z m2195 0 l0 -1055 -1075 0 -1075 0 0 1055 0
1055 1075 0 1075 0 0 -1055z m2150 0 l0 -1055 -1055 0 -1055 0 0 1055 0 1055
1055 0 1055 0 0 -1055z m2110 0 l0 -1055 -1032 2 -1033 3 -3 1053 -2 1052
1035 0 1035 0 0 -1055z m2198 3 l-3 -1053 -1075 0 -1075 0 -3 1040 c-1 572 0
1046 3 1053 3 9 229 12 1080 12 l1075 0 -2 -1052z m-15061 1020 c-3 -8 -6 -5
-6 6 -1 11 2 17 5 13 3 -3 4 -12 1 -19z m-2162 -3173 l0 -1050 -1057 -3 -1058
-2 0 1048 c0 577 3 1052 7 1055 3 4 479 6 1057 5 l1051 -3 0 -1050z m1915
1003 c0 -48 -29 -167 -51 -210 -5 -10 -9 -24 -9 -33 0 -8 -9 -19 -19 -24 -15
-9 -20 -26 -25 -93 -13 -166 -15 -172 -57 -216 -21 -23 -47 -42 -57 -42 -55 0
-86 -60 -79 -157 3 -37 10 -138 16 -223 6 -85 15 -175 20 -200 16 -71 13 -221
-4 -271 -24 -68 -44 -108 -60 -117 -12 -6 -17 -45 -24 -183 -7 -146 -12 -183
-30 -224 -12 -27 -27 -53 -34 -57 -7 -4 -337 -8 -734 -8 l-723 0 0 1055 0
1055 935 0 935 0 0 -52z m2390 -1003 l0 -1055 -1075 0 -1075 0 0 183 c0 270
16 479 37 495 13 9 18 32 21 82 2 39 8 70 12 70 4 0 18 19 30 42 17 33 23 69
30 177 10 143 18 186 44 223 11 15 16 45 16 90 0 38 4 68 8 68 5 0 18 24 30
53 17 41 22 73 22 147 1 262 26 448 64 472 6 4 422 8 924 8 l912 0 0 -1055z
m2150 0 l0 -1055 -1055 0 -1055 0 0 1055 0 1055 1055 0 1055 0 0 -1055z m2115
0 l0 -1050 -1035 0 -1035 0 -3 1040 c-1 572 0 1046 3 1053 3 10 216 12 1037
10 l1033 -3 0 -1050z m2195 0 l0 -1055 -1075 0 -1075 0 0 1055 0 1055 1075 0
1075 0 0 -1055z m2150 0 l0 -1055 -1055 0 -1055 0 0 1055 0 1055 1055 0 1055
0 0 -1055z m2110 0 l0 -1055 -1035 0 -1035 0 0 1055 0 1055 1035 0 1035 0 0
-1055z m2195 0 l0 -1050 -1075 0 -1075 0 -3 1040 c-1 572 0 1046 3 1053 3 10
224 12 1077 10 l1073 -3 0 -1050z m-15105 -950 l0 -105 -36 0 -35 0 6 58 c4
31 14 64 21 73 8 8 14 23 14 31 0 24 11 48 21 48 5 0 9 -47 9 -105z m-2112
-1189 c2 -825 0 -1041 -10 -1048 -15 -9 -2068 -11 -2092 -2 -14 6 -16 107 -16
1043 0 571 3 1041 7 1044 3 4 479 6 1057 5 l1051 -3 3 -1039z m1459 1038 l29
-6 -12 -56 c-22 -104 -36 -157 -50 -187 -7 -16 -23 -55 -34 -86 -14 -37 -27
-59 -40 -62 -17 -4 -20 -14 -20 -59 0 -89 -10 -125 -45 -161 -21 -22 -34 -47
-39 -76 -3 -23 -13 -53 -21 -65 -9 -13 -21 -60 -27 -104 -7 -45 -16 -82 -20
-82 -4 0 -8 -8 -8 -18 0 -11 -9 -27 -20 -37 -18 -16 -20 -31 -20 -137 l0 -118
285 0 c272 0 286 1 305 20 11 11 20 33 20 50 0 17 4 30 10 30 11 0 52 89 45
100 -2 4 1 48 7 97 9 78 15 95 40 122 16 17 33 31 37 31 20 0 30 64 33 207 3
126 7 155 21 171 9 10 17 31 17 45 0 15 4 27 8 27 4 0 20 25 36 56 25 49 29
69 34 180 l5 125 36 -3 36 -3 0 -1045 0 -1045 -1030 0 -1030 0 -3 1048 -2
1047 694 0 c381 0 707 -3 723 -6z m2838 -1044 l0 -1045 -1070 0 -1070 0 -3
1048 -2 1047 1072 -2 1073 -3 0 -1045z m2153 3 l-3 -1048 -1050 0 -1050 0 -3
1035 c-1 569 0 1041 3 1048 3 9 224 12 1055 12 l1050 0 -2 -1047z m2120 3 c2
-825 0 -1041 -10 -1048 -15 -9 -2028 -11 -2052 -2 -14 6 -16 107 -16 1043 0
571 3 1041 7 1044 3 4 470 6 1037 5 l1031 -3 3 -1039z m2187 -6 l0 -1045
-1070 0 -1070 0 -3 1048 -2 1047 1072 -2 1073 -3 0 -1045z m2153 3 l-3 -1048
-1050 0 -1050 0 -3 1048 -2 1047 1055 0 1055 0 -2 -1047z m2110 0 l-3 -1048
-1030 0 -1030 0 -3 1035 c-1 569 0 1041 3 1048 3 9 220 12 1035 12 l1030 0 -2
-1047z m2200 3 c2 -825 0 -1041 -10 -1048 -15 -9 -2108 -11 -2132 -2 -14 6
-16 107 -16 1043 0 571 3 1041 7 1044 3 4 488 6 1077 5 l1071 -3 3 -1039z"/>
<path d="M10710 985 c0 -23 4 -25 45 -25 41 0 45 2 45 25 0 23 -4 25 -45 25
-41 0 -45 -2 -45 -25z"/>
<path d="M14270 985 c0 -23 4 -25 45 -25 41 0 45 2 45 25 0 23 -4 25 -45 25
-41 0 -45 -2 -45 -25z"/>
</g>
</svg>
